<?xml version="1.0" encoding="UTF-8"?>
<svg id="Layer_1" xmlns="http://www.w3.org/2000/svg" viewBox="0 0 676.47 360">
  <defs>
    <style>
      .cls-1 {
        fill: #f3b338;
      }

      .cls-2 {
        fill: #155487;
      }

      .cls-3 {
        fill: #1d93b7;
      }
    </style>
  </defs>
  <path class="cls-1" d="M178.19,225.23c-1.35-1.53-3.41-2.44-5.67-2.5-2.13-.05-4.22.65-5.73,1.94-8.74,7.52-18.98,11.18-31.3,11.18-25.72,0-45.87-20.81-45.87-47.38s20.04-48.13,45.62-48.13c12.05,0,22.34,3.88,31.45,11.85,3.15,3.05,8.01,3.02,11.17-.14l19.5-20.25c1.67-1.68,2.56-3.84,2.5-6.11-.07-2.27-1.1-4.4-2.86-5.97-18.37-16.75-37.8-24.22-63.01-24.22s-48.8,9.75-66.51,27.47c-17.71,17.71-27.47,41.33-27.47,66.51,0,21.32,7.01,41.47,19.93,57.82-.1.22-.18.46-.34.6-7.66,11.15-17.98,22.88-30.89,34.41-1.68,1.44-2.4,3.99-2.07,6.37.56,2.92,3.01,4.94,5.86,5.16.52.04,1.3.1,1.84-.12,19.13-4.25,34.67-9.3,49.31-16.25,2.85-1.25,5.59-2.76,8.3-4.26,12.87,6.36,27.18,9.75,42.05,9.75,24.38,0,46.29-8.75,63.38-25.34,1.46-1.46,2.35-3.53,2.46-5.68.11-2.29-.67-4.47-2.17-5.99l-19.47-20.72ZM192.45,252.64c-15.72,15.26-35.94,23.32-58.46,23.32-14.76,0-28.92-3.58-41.48-10.31l-7.54,3.75s.03.02.04.02c-1.42.72-2.85,1.42-4.27,2.08-14.1,6.73-29.36,11.54-47.72,15.85,12.9-11.74,23.3-23.42,31.2-34.82l4.14-6.1c-13.8-15.7-21.35-35.69-21.35-56.95,0-23.31,9.03-45.17,25.42-61.56,16.39-16.39,38.25-25.42,61.56-25.42s41.31,6.91,58.33,22.42c.24.22.54.56.55.98.01.4-.24.74-.5,1l-19.5,20.25c-.39.39-.93.39-1.32,0l-.17-.15c-10.46-9.19-22.28-13.65-36.14-13.65-29.51,0-52.62,24.22-52.62,55.13s23.22,54.38,52.87,54.38c14.07,0,25.8-4.21,35.86-12.87.38-.32,1.35-.31,1.58-.13l19.66,20.92.08.08c.09.09.19.36.17.73-.02.42-.19.85-.38,1.05Z"/>
  <g>
    <path class="cls-3" d="M138.11,151.86c10,0,17.4,3.1,24.2,9.3.9.8.9,2,.1,2.8l-7.8,8.1c-.7.7-1.8.7-2.5,0-4.1-3.6-8.6-5.1-13.5-5.1-11.3,0-19.6,9.4-19.6,20.6s8.4,20.3,19.7,20.3c5.5,0,9.8-1.7,13.4-4.8.7-.6,2-.6,2.6.1l7.8,8.3c.7.7.6,2-.1,2.7-6.8,6.6-15.4,9.7-24.3,9.7-20,0-36.1-15.9-36.1-35.9s16.1-36.1,36.1-36.1Z"/>
    <path class="cls-3" d="M204.01,151.86c20,0,36,16.1,36,36.1s-16,35.9-36,35.9-35.9-15.9-35.9-35.9,15.9-36.1,35.9-36.1ZM204.01,207.87c11,0,20-9,20-19.9s-9-20.1-20-20.1-19.9,9.1-19.9,20.1,9,19.9,19.9,19.9Z"/>
    <path class="cls-3" d="M292.31,153.96c.2-.5.9-1.1,1.7-1.1h13.3c1.5,0,2.3,1.3,1.7,2.6l-31.4,67.3c-.3.6-.9,1.1-1.7,1.1h-1c-.8,0-1.4-.5-1.7-1.1l-31.2-67.3c-.6-1.3.2-2.6,1.7-2.6h13.3c.8,0,1.5.6,1.7,1.1l16.5,36.5h.6l16.5-36.5Z"/>
    <path class="cls-3" d="M316.81,154.76c0-1,.8-1.9,1.9-1.9h41.4c1.1,0,1.9.9,1.9,1.9v10.9c0,1-.8,1.9-1.9,1.9h-27.7v12.4h22.8c1,0,1.9.9,1.9,1.9v10.9c0,1.1-.9,1.9-1.9,1.9h-22.8v13.5h27.7c1.1,0,1.9.9,1.9,1.9v10.9c0,1-.8,1.9-1.9,1.9h-41.4c-1.1,0-1.9-.9-1.9-1.9v-66.2Z"/>
    <path class="cls-2" d="M388.61,159.56h-17.4c-1.1,0-1.9-.9-1.9-1.9v-2.9c0-1,.8-1.9,1.9-1.9h42.4c1.1,0,1.9.9,1.9,1.9v2.9c0,1-.8,1.9-1.9,1.9h-17.4v61.4c0,1-.9,1.9-1.9,1.9h-3.8c-1,0-1.9-.9-1.9-1.9v-61.4Z"/>
    <path class="cls-2" d="M414.91,220.27l30.4-67.3c.3-.6.8-1.1,1.7-1.1h1c.9,0,1.4.5,1.7,1.1l30.2,67.3c.6,1.3-.2,2.6-1.7,2.6h-4c-.9,0-1.5-.6-1.7-1.1l-7.4-16.5h-35.5l-7.3,16.5c-.2.5-.8,1.1-1.7,1.1h-4c-1.5,0-2.3-1.3-1.7-2.6ZM462.41,199.07c-4.9-10.9-9.7-21.9-14.6-32.8h-.8l-14.6,32.8h30Z"/>
    <path class="cls-2" d="M490.31,154.76c0-1,.8-1.9,1.9-1.9h3.9c1,0,1.9.9,1.9,1.9v61.4h28.8c1.1,0,1.9.9,1.9,1.9v2.9c0,1-.8,1.9-1.9,1.9h-34.6c-1.1,0-1.9-.9-1.9-1.9v-66.2Z"/>
    <path class="cls-2" d="M539.71,155.26c0-1.3,1-2.4,2.4-2.4h2.9c1.3,0,2.4,1.1,2.4,2.4v28.9l31.2-30.3c.4-.5,1.3-1,1.9-1h4.9c1.8,0,2.8,2,1.2,3.5l-31.6,30.1,33.1,33.3c.7.7.5,3.1-1.7,3.1h-5.1c-.7,0-1.6-.4-1.8-.7l-32.1-32.9v31.2c0,1.3-1.1,2.4-2.4,2.4h-2.9c-1.4,0-2.4-1.1-2.4-2.4v-65.2Z"/>
    <path class="cls-2" d="M595.41,212.37l1.5-1.9c1-1.3,1.8-1.8,3.2-.6.7.6,8.3,7.3,17.2,7.3,8.1,0,13.4-5.1,13.4-11.4,0-6.9-6-10.9-17.5-15.8-11-4.7-17.6-8.9-17.6-20.3,0-6.8,5.4-17.8,21.3-17.8,9.8,0,17.1,5.1,17.1,5.1.6.3,1.7,1.5.6,3.4l-1,1.7c-.8,1.4-1.9,1.4-3.5.5-4.2-2.5-7.7-4-13.3-4-10.6,0-13.8,6.8-13.8,11,0,7.1,5.1,10.2,13.5,13.7,13.5,5.5,22.2,10.6,22.2,22.2,0,10.4-9.9,18.4-21.6,18.4s-19.8-6.9-21.1-8.1c-.8-.7-2-1.6-.6-3.4Z"/>
  </g>
</svg>