<?xml version="1.0" encoding="UTF-8"?>
<svg id="Layer_1" xmlns="http://www.w3.org/2000/svg" version="1.1" viewBox="0 0 90 60.3">
  <!-- Generator: Adobe Illustrator 29.0.0, SVG Export Plug-In . SVG Version: 2.1.0 Build 186)  -->
  <path d="M85,45.1v-18.7l3.6-1.7c.9-.4,1.4-1.3,1.4-2.3s-.6-1.8-1.4-2.3L46.1.2c-.7-.3-1.5-.3-2.1,0L1.4,20.2c-.9.4-1.4,1.3-1.4,2.3s.6,1.8,1.4,2.3l16.1,7.6v12.7c0,7.7,13.4,15,27.5,15s27.5-7.3,27.5-15v-12.7l7.5-3.5v16.3l-4.7,9.5c-.5,1-.3,2.1.5,2.9,1.9,1.9,4.3,2.8,6.8,2.8s4.9-.9,6.8-2.8c.8-.8.9-1.9.5-2.9l-4.7-9.5ZM67.5,45c0,3.4-9.5,10-22.5,10s-22.5-6.6-22.5-10v-10.3l21.4,10.1c.3.2.7.2,1.1.2s.7,0,1.1-.2l21.4-10.1v10.3ZM45,39.7L8.4,22.5,45,5.3l36.6,17.2-36.6,17.2ZM80.7,54.9l1.8-3.6,1.8,3.6c-1.1.5-2.5.5-3.6,0Z"/>
</svg>