<?xml version="1.0" encoding="UTF-8"?>
<svg id="Layer_1" xmlns="http://www.w3.org/2000/svg" version="1.1" viewBox="0 0 67.5 79.4">
  <!-- Generator: Adobe Illustrator 29.0.0, SVG Export Plug-In . SVG Version: 2.1.0 Build 186)  -->
  <path d="M52.1,24.2c1.7-2.5,1.5-6-.8-8.2-1.2-1.2-2.8-1.9-4.5-1.9s-2.6.4-3.7,1.1l-9.1-9.1c-.7-.7-1.6-1.1-2.6-1.1s-1.9.4-2.6,1.1c-1.4,1.4-1.4,3.7,0,5.2l.9.9c-.5,3.7-1.7,8.9-4.2,13.8-.7,1.2-1.6,2.4-2.7,3.5l-6.9,6.9s0,0,0,0L1.6,51c-.7.7-1.1,1.6-1.1,2.6s.2,1.5.7,2.1c-1.8,2.6-1.6,6.1.7,8.4l1.3,1.3c1.2,1.2,2.9,1.9,4.7,1.9s2.7-.4,3.8-1.2c.6.4,1.3.7,2.1.7s1.9-.4,2.6-1.1l.7-.7,2.7,2.7c.2.2.5.3.8.3s.6-.1.8-.3l.6-.6,18,11.7c.6.4,1.2.6,1.9.6s1.8-.4,2.5-1l4.9-4.9c1.5-1.5,1.5-3.9,0-5.4s-1.7-1.1-2.7-1.1-1.6.3-2.3.7l-5.8-3.8c1.8-1.8,1.8-4.8,0-6.6l-4.1-4.1s0,0,0,0l-2.7-2.7,6.1-6.1c1.1-1.1,2.3-2,3.5-2.7,4.8-2.6,10-3.7,13.8-4.2l.9.9c.7.7,1.6,1.1,2.6,1.1s1.9-.4,2.6-1.1c.7-.7,1.1-1.6,1.1-2.6,0-1-.4-1.9-1.1-2.6l-9.1-9.1ZM46.8,16.4c1.1,0,2.1.4,2.9,1.2,1.3,1.3,1.5,3.3.7,4.8l-5.5-5.5c.6-.3,1.3-.5,2-.5h0ZM7.9,65c-1.1,0-2.2-.4-3-1.2l-1.3-1.3c-1.4-1.4-1.6-3.4-.7-5l7,7c-.6.3-1.3.5-2.1.5h0ZM12.8,64.1l-9.6-9.6c-.2-.2-.4-.6-.4-.9s.1-.7.4-.9l13.7-13.7,11.5,11.5-13.7,13.7c-.5.5-1.4.5-1.8,0h0ZM47.7,69.7c.6.6.6,1.5,0,2.1l-4.9,4.9c-.4.4-1,.4-1.5.2l-17.6-11.4,5.1-5.1,14.9,9.7s0,0,0,0c0,0,0,0,0,0h0s0,0,0,0c0,0,.2.1.3.1,0,0,0,0,0,0,0,0,.1,0,.2,0s0,0,.1,0c0,0,0,0,0,0,.2,0,.5-.1.7-.3,0,0,0,0,0,0l.3-.3c.6-.6,1.5-.6,2.1,0h0ZM36.9,62.2l-.3.3-6-3.9,3.1-3.1,3.3,3.3c.9.9.9,2.4,0,3.4h0ZM27.9,58s0,0,0,0l-7.2,7.2-1.9-1.9,11.3-11.3,1.9,1.9-4.1,4.1ZM40.3,39.6c-1.5.8-2.8,1.8-4.1,3.1l-6.1,6.1-11.5-11.5,6.1-6.1c1.3-1.3,2.3-2.7,3.1-4.1,2.3-4.4,3.5-9.1,4.2-12.8l21.1,21.1c-3.7.6-8.4,1.9-12.8,4.2h0ZM59.5,36.7c-.5.5-1.4.5-1.8,0L32,11s0,0,0,0l-1.4-1.4c-.5-.5-.5-1.3,0-1.8.2-.2.6-.4.9-.4s.7.1.9.4l27.1,27.1c.2.2.4.6.4.9,0,.4-.1.7-.4.9h0Z"/>
  <path d="M15.7,46c-.5-.5-1.2-.5-1.7,0l-8.4,8.4c-.5.5-.5,1.2,0,1.7.2.2.5.3.8.3s.6-.1.8-.3l8.4-8.4c.5-.5.5-1.2,0-1.7h0Z"/>
  <path d="M18.5,48.9c-.5-.5-1.2-.5-1.7,0l-8.4,8.4c-.5.5-.5,1.2,0,1.7.2.2.5.3.8.3s.6-.1.8-.3l8.4-8.4c.5-.5.5-1.2,0-1.7h0Z"/>
  <path d="M21.3,51.7c-.5-.5-1.2-.5-1.7,0l-8.4,8.4c-.5.5-.5,1.2,0,1.7.2.2.5.3.8.3s.6-.1.8-.3l8.4-8.4c.5-.5.5-1.2,0-1.7h0Z"/>
  <path d="M45.8,10c.6,0,1.2-.5,1.2-1.2V1.4c0-.6-.5-1.2-1.2-1.2s-1.2.5-1.2,1.2v7.4c0,.6.5,1.2,1.2,1.2Z"/>
  <path d="M66,20.4h-7.4c-.6,0-1.2.5-1.2,1.2s.5,1.2,1.2,1.2h7.4c.6,0,1.2-.5,1.2-1.2s-.5-1.2-1.2-1.2Z"/>
  <path d="M54.3,14.8c.3,0,.6-.1.8-.3l8.2-8.2c.5-.5.5-1.2,0-1.7-.5-.5-1.2-.5-1.7,0l-8.2,8.2c-.5.5-.5,1.2,0,1.7.2.2.5.3.8.3h0Z"/>
</svg>