<?xml version="1.0" encoding="UTF-8"?>
<svg id="Layer_1" xmlns="http://www.w3.org/2000/svg" version="1.1" viewBox="0 0 95 81.8">
  <!-- Generator: Adobe Illustrator 29.1.0, SVG Export Plug-In . SVG Version: 2.1.0 Build 142)  -->
  <defs>
    <style>
      .st0 {
        fill-rule: evenodd;
      }
    </style>
  </defs>
  <path class="st0" d="M43.8,17.8c-3.4-3.4-11.2-7.3-16.1-7.4-4.5-.2-8.7,1.6-11.8,5-4.6,5-6,10.2-5.5,15.1.6,5.3,3.4,10.8,7.4,15.9,5,6.5,21.8,18.4,29.6,23.9,7.8-5.5,24.6-17.4,29.6-23.9,3.9-5.1,6.8-10.6,7.4-15.9.6-5-.9-10.1-5.5-15.1-3-3.4-7.2-5.1-11.8-5-4.9.2-12.6,4-16.1,7.4-2,2-5.3,2-7.4,0h0ZM47.5,7.4C52.9,3.6,60.7.2,66.9,0c3.8-.1,7.4.6,10.8,2,3.4,1.4,6.4,3.6,9,6.4,6.8,7.5,9,15.4,8.1,23.2-.8,7.4-4.5,14.6-9.5,21.1-3,4-9,9.1-15.6,14.2-6.4,4.9-13.5,9.9-19.2,13.9-1.9,1.3-4.2,1.3-6.1,0-5.8-4-12.9-9-19.2-13.9-6.6-5.1-12.5-10.2-15.6-14.2C4.6,46.2,1,39.1.2,31.6c-.9-7.8,1.3-15.7,8.1-23.2,2.5-2.8,5.6-5,9-6.4C20.6.6,24.3-.1,28.1,0c6.3.2,14.1,3.6,19.4,7.4h0Z"/>
</svg>