<?xml version="1.0" encoding="UTF-8"?>
<svg id="Layer_1" xmlns="http://www.w3.org/2000/svg" version="1.1" viewBox="0 0 46 52.1">
  <!-- Generator: Adobe Illustrator 29.1.0, SVG Export Plug-In . SVG Version: 2.1.0 Build 142)  -->
  <path d="M45.8,50.2l-3.7-6.4c.5-.3.9-.8,1.1-1.4.3-.7.2-1.5,0-2.2-.4-.7-1-1.2-1.7-1.4-.7-.2-1.4-.1-2.1.2l-2-3.5c-.4-.6-.6-1.2-.6-1.9,0-4.2-.2-11.8-1.5-15.8-1.1-3.4-3.7-10.2-5.7-15.3-.5-1.4-1.7-2.4-3.3-2.5-1.3-.2-2.5.3-3.4,1.2-.8-.9-2.1-1.3-3.4-1.2-1.5.2-2.8,1.2-3.3,2.5-2,5.1-4.6,11.9-5.7,15.3-1.3,4-1.5,11.6-1.5,15.8,0,.7-.2,1.3-.7,2l-1.9,3.4c-.7-.3-1.4-.4-2-.2-.7.2-1.3.7-1.7,1.4-.3.7-.4,1.5,0,2.2.2.6.6,1,1.1,1.4L.2,50.2c-.3.6-.1,1.3.5,1.7.2.1.4.2.6.2.4,0,.8-.2,1-.6l3.7-6.5,7.3,3.6-.7,1.9c-.2.7.1,1.3.8,1.6.7.2,1.3,0,1.6-.8l.5-1.6c.8.4,1.6.7,2.5.4,1-.3,1.8-1.3,1.8-2.4,0-1.1-.5-2.2-1.5-2.6l-1.1-.5c.3-.8.8-1.4,1.5-1.9,1.1-.8,2.9-2.4,4.1-4.9,1.2,2.5,3,4.1,4.1,4.9.7.5,1.2,1.1,1.5,1.9,0,0,0,0-.1,0-.9.4-2,1-2.3,2-.4,1,0,2.2.8,2.9.9.8,2,.9,3,.4l.4-.2.5,1.6c.2.7.9,1,1.6.8.7-.2,1-.9.8-1.6l-.7-1.9,7.3-3.6,3.7,6.5c.2.4.6.6,1,.6h0c.5,0,.9-.3,1.1-.7.2-.4.2-.8,0-1.2ZM24.3,31.9c0-.9.2-2,.5-3,.2-.9.5-1.9.5-2.9v-6.9c0-.6.4-1,.8-1.1.2,0,.3-.1.5-.1.3,0,.6,0,.8.3.2.2.4.6.4.9v8.3c0,.7.5,1.2,1.3,1.2s1.2-.5,1.2-1.2v-8.3c0-1.7-1.2-3.2-2.8-3.6-1.3-4.6-3.1-11.2-3.1-11.6,0-.9.7-1.4,1.2-1.5.6-.1,1.4,0,1.7.9,2,5.1,4.6,11.9,5.6,15.2,1.2,3.8,1.3,11.7,1.3,15,0,1.2.4,2.4,1,3.3l1.9,3.2c-.4.2-.9.5-1.8.9-1.4.7-3.7,1.8-4.6,2.3-.5-1.1-1.2-2-2.2-2.8-1.6-1.1-4.5-4.2-4.3-8.6ZM25,15.8c-1,.4-1.7,1.2-2,2.2-.3-1-1-1.7-2-2.2l2-7.2,2,7.2ZM15.2,43.3l-6.4-3.2,1.8-3.1c.8-1,1.1-2.2,1.1-3.4,0-3.3.1-11.2,1.3-15,1.1-3.4,3.7-10.1,5.6-15.2.1-.4.4-.7.8-.9.6-.3,1.2,0,1.6.3.4.3.7.9.5,1.5l-3.1,11.1c-.6.2-1.2.5-1.7,1-.7.7-1.1,1.7-1.1,2.7v8.3c0,.7.6,1.2,1.2,1.2s1.2-.6,1.2-1.2v-8.3c0-.9.6-1.2,1.3-1.2h0c.6,0,1.3.4,1.3,1.2v6.9c0,.9.3,1.9.5,2.8.3,1.1.5,2.1.5,3.1.2,4.3-2.7,7.5-4.3,8.6h0c-1,.7-1.8,1.7-2.2,2.8ZM41,41.5s0,0-.1.1l-12,5.9c-.2,0-.2,0-.3-.1,0-.1,0-.2,0-.3l12.1-5.9s0,0,0,0c0,0,.1,0,.2,0,0,0,.1.1,0,.2ZM17.5,47.4c0,.1,0,.2,0,.2,0,0-.1,0-.2,0l-12-5.9c-.1,0-.1-.2-.1-.2,0,0,0-.2.1-.2,0,0,0,0,0,0s0,0,0,0l12,5.9c0,0,0,0,.1.1h0Z"/>
</svg>