<?xml version="1.0" encoding="UTF-8"?>
<svg id="Layer_1" xmlns="http://www.w3.org/2000/svg" version="1.1" viewBox="0 0 72.6 72.7">
  <!-- Generator: Adobe Illustrator 29.0.0, SVG Export Plug-In . SVG Version: 2.1.0 Build 186)  -->
  <defs>
    <style>
      .st0 {
        fill: #fff;
      }
    </style>
  </defs>
  <g id="Layer_11" data-name="Layer_1">
    <path class="st0" d="M30.1,60.1C13.5,60.1,0,46.6,0,30.1S13.5,0,30.1,0s30,13.4,30,30-13.4,30-30,30h0ZM30.1,6.1c-13.3,0-24,10.7-24,24s10.7,24,24,24,24-10.7,24-24S43.3,6.1,30.1,6.1Z"/>
    <line class="st0" x1="50.1" y1="50.1" x2="69.6" y2="69.6"/>
    <path class="st0" d="M69.6,72.6c-.8,0-1.6-.3-2.1-.9l-19.5-19.5c-1.1-1.2-1.1-3.1,0-4.2,1.2-1.1,2.9-1.1,4.1,0l19.5,19.5c1.2,1.2,1.2,3.1,0,4.2-.6.6-1.3.9-2.1.9Z"/>
  </g>
</svg>