<?xml version="1.0" encoding="UTF-8"?>
<svg id="Layer_1" xmlns="http://www.w3.org/2000/svg" version="1.1" viewBox="0 0 58.4 59">
  <!-- Generator: Adobe Illustrator 29.1.0, SVG Export Plug-In . SVG Version: 2.1.0 Build 142)  -->
  <path d="M58,24.5c-.8-.9-2-1.3-3.2-1.1-2.1.4-4,2.7-5.8,7-.2,0-.3,0-.5,0-.5,0-1,0-1.5.2v-10.7c.6.3,1.2.4,1.8.4.8,0,1.6-.5,2.2-1.2,1.1-1.4.9-3.4-.4-4.5,0,0-.2-.1-.3-.2L31.5.6c-1.1-.8-2.6-.8-3.7,0l-7.7,5.2v-.4c0-.8-.7-1.5-1.5-1.5h-5.2c-.8,0-1.5.7-1.5,1.5v6l-4.2,2.9c-.7.5-1.2,1.2-1.3,2-.2.8,0,1.7.5,2.4.9,1.3,2.6,1.7,4,1.1v10.7c-.3,0-.7,0-1,0-.2,0-.3,0-.5,0-1.8-4.3-3.7-6.6-5.8-7-1.2-.2-2.4.2-3.2,1.1-1.9,2.1,3.8,14.8,4.2,15.3,1,1.3,8.6,5.9,13.4,8.6l-2.9,8.7c-.1.4,0,.9.2,1.3.3.4.7.6,1.2.6h12.6c0,0,.2,0,.3,0,0,0,.2,0,.2,0h12.6c.5,0,.9-.2,1.2-.6.3-.4.3-.9.2-1.3l-2.9-8.7c8.1-4.7,12.6-7.6,13.4-8.5.4-.5,6.1-13.1,4.2-15.3ZM14.9,9.3v-2.5h2.3v.9l-2.3,1.6ZM28.8,42.5c-.4-.9-4.2-8.5-8.6-9-2-.4-4-1-5.9-1.8l-.5-.2v-13.7s15.7-10.7,15.7-10.7l14.6,10.6v13.9h0c-1.9.8-3.8,1.5-5.8,1.8-4.4.5-8.2,8.2-8.6,9-.1.2-.2.4-.2.7v3.7c0,0-.2,0-.3.1,0,0-.2,0-.3-.1v-3.7c0-.2,0-.5-.1-.6ZM20.6,49.7h6.5l.4,6.4h-8.9l2.1-6.4ZM7.8,35.7c.7.5,4.6,2.6,6.3,3.5l.6.3c.3.2.6.4,1,.4.4,0,.8-.2,1-.5.6-.6.5-1.6,0-2.1-.2-.2-.4-.3-.6-.3-2.2-1.2-5.3-2.9-6.3-3.5,0,0,0,0,0,0,0,0,.1-.1.2-.1,1.1.2,2.2.6,3.3,1.1,2.1.9,4.3,1.6,6.6,2,1.7.2,4.5,3.8,6.2,7.1v3.3h-4.8c-7.8-4.5-13.7-8.1-14.2-8.8-.9-1.2-3.9-9.5-4.1-11.7,0,0,.1,0,.2,0,.3,0,1.9.6,4,6.1,0,.1,0,.2-.1.3-.4,1.1,0,2.3.9,3ZM37.3,46.8h-4.8v-3.3c1.7-3.3,4.5-6.9,6.2-7.1,2.2-.4,4.4-1.1,6.5-2l1-.4c.7-.3,1.5-.6,2.2-.7.1,0,.2,0,.2.2,0,0,0,0,0,0-1,.6-3.8,2.2-6.3,3.6h-.1c-.3.4-.4.7-.5,1.1,0,.4.1.8.4,1.1.4.4.9.5,1.4.4l.6-.3c1.5-.9,5.6-3.1,6.4-3.6.9-.7,1.2-1.9.9-2.9,0-.1,0-.2-.1-.4,2.2-5.5,3.7-6.1,4-6.1,0,0,.1,0,.1,0-.3,2.3-3.2,10.5-4.1,11.7-.6.7-6.7,4.5-14.2,8.8ZM29.8,2.9l18.8,13.9c0,0,0,.1,0,.2,0,0,0,.1,0,.2,0,.1-.2.1-.4,0L30.4,4.1c-.2-.2-.6-.3-.9-.3h0c-.3,0-.6,0-.8.3l-19.1,13c-.1,0-.3,0-.3,0,0,0,0-.1,0-.2,0,0,0-.1.1-.2L29.5,2.9c0,0,.2,0,.3,0ZM31.3,49.7h6.5l2.1,6.4h-9l.4-6.4Z"/>
  <path d="M29.6,33c5.6-1.6,8.5-5.9,8.9-9.5.4-2.4-.7-4.9-2.8-6.2-1.3-.8-2.8-1-4.2-.6-.9.3-1.8.8-2.4,1.5-.7-.7-1.5-1.2-2.5-1.5-1.4-.4-3-.2-4.2.6-2.2,1.3-3.3,3.9-2.9,6.3.4,3.3,3,7.7,9.1,9.3,0,0,.1,0,.2,0s0,0,.1,0h.8ZM34.2,19.9c1.1.7,1.6,2,1.3,3.3-.3,2.6-2.4,5.7-6.6,6.9-4.4-1.3-6.3-4.3-6.7-6.8-.3-1.3.3-2.6,1.3-3.3h.1c.6-.4,1.3-.5,1.9-.4.8.3,1.4.9,1.9,1.6.3.5.8.8,1.3.8h.4c.5,0,1-.3,1.3-.8.4-.7,1.1-1.3,1.8-1.6.6-.2,1.3,0,1.9.3Z"/>
</svg>